<svg width="424" height="141" viewBox="0 0 424 141" fill="none" xmlns="http://www.w3.org/2000/svg">
<path d="M130.994 68V74.7534H108.364C107.3 74.7534 106.41 75.0856 105.696 75.734C104.965 76.3983 104.616 77.2049 104.616 78.1697C104.616 79.1345 104.981 79.9569 105.696 80.637C106.41 81.3171 107.316 81.6651 108.364 81.6651H123.387C124.943 81.6651 126.404 81.9339 127.77 82.4559C129.136 82.9936 130.327 83.7053 131.359 84.6227C132.392 85.54 133.201 86.6155 133.773 87.8491C134.361 89.0828 134.647 90.4113 134.647 91.8348C134.647 93.2582 134.361 94.5868 133.773 95.8204C133.186 97.0541 132.376 98.1454 131.359 99.0785C130.327 100.012 129.136 100.755 127.77 101.277C126.404 101.815 124.943 102.068 123.387 102.068H100.852V95.3143H123.387C124.499 95.3143 125.42 94.9822 126.134 94.3337C126.849 93.6694 127.214 92.847 127.214 91.8348C127.214 90.87 126.849 90.0634 126.134 89.3991C125.404 88.7348 124.499 88.4185 123.387 88.4185H108.364C106.807 88.4185 105.346 88.1496 103.981 87.6277C102.615 87.09 101.44 86.3624 100.439 85.4293C99.4387 84.4961 98.6446 83.4048 98.057 82.1712C97.4694 80.9375 97.1836 79.609 97.1836 78.1855C97.1836 76.7621 97.4694 75.4494 98.057 74.1999C98.6446 72.9662 99.4387 71.8907 100.439 70.9734C101.44 70.0561 102.615 69.3444 103.981 68.8066C105.346 68.2689 106.807 68.0158 108.364 68.0158H130.994V68Z" fill="#202020"/>
<path d="M155.801 68.1582C158.422 68.1582 160.852 68.601 163.107 69.4867C165.362 70.3724 167.347 71.5903 169.078 73.1244C170.809 74.6744 172.159 76.4616 173.128 78.5177C174.096 80.5738 174.589 82.788 174.589 85.1605C174.589 87.4854 174.096 89.6838 173.128 91.7557C172.159 93.8276 170.809 95.6465 169.078 97.2123C167.347 98.7781 165.362 100.012 163.107 100.897C160.852 101.783 158.422 102.226 155.801 102.226H144.526V115.891H137.094V85.1446C137.094 82.7722 137.586 80.558 138.555 78.5019C139.524 76.4458 140.858 74.6586 142.557 73.1086C144.256 71.5586 146.241 70.3566 148.528 69.4709C150.815 68.6011 153.245 68.1582 155.801 68.1582ZM160.216 94.6659C161.614 94.1282 162.821 93.4006 163.853 92.4675C164.885 91.5343 165.695 90.4272 166.267 89.1619C166.855 87.8966 167.14 86.5523 167.14 85.1446C167.14 83.7212 166.855 82.4085 166.267 81.159C165.679 79.9253 164.869 78.834 163.853 77.9009C162.821 76.9677 161.614 76.2244 160.216 75.7025C158.819 75.1647 157.342 74.9116 155.786 74.9116C154.229 74.9116 152.768 75.1805 151.402 75.7025C150.037 76.2402 148.846 76.9677 147.813 77.9009C146.781 78.834 145.971 79.9253 145.399 81.159C144.812 82.3926 144.526 83.7212 144.526 85.1446V95.4725H155.801C157.358 95.4725 158.835 95.2036 160.216 94.6659Z" fill="#202020"/>
<path d="M195.709 68C198.33 68 200.759 68.4428 203.014 69.3285C205.27 70.2142 207.239 71.4321 208.938 72.9662C210.637 74.5162 211.971 76.3034 212.94 78.3595C213.909 80.4156 214.401 82.6298 214.401 85.0023V102.084H195.693C193.137 102.084 190.707 101.641 188.436 100.755C186.149 99.8693 184.148 98.6357 182.417 97.0699C180.686 95.5041 179.336 93.6853 178.367 91.6134C177.399 89.5415 176.906 87.343 176.906 85.0181C176.906 82.6457 177.399 80.4314 178.367 78.3753C179.336 76.3192 180.686 74.532 182.417 72.982C184.148 71.4321 186.149 70.2301 188.436 69.3444C190.723 68.4428 193.137 68 195.709 68ZM206.969 95.3143V84.9864C206.969 83.563 206.683 82.2503 206.095 81.0008C205.508 79.7671 204.698 78.6758 203.681 77.7427C202.649 76.8095 201.458 76.0662 200.092 75.5443C198.727 75.0065 197.266 74.7534 195.709 74.7534C194.153 74.7534 192.676 75.0223 191.278 75.5443C189.881 76.082 188.674 76.8095 187.642 77.7427C186.609 78.6758 185.8 79.7671 185.228 81.0008C184.64 82.2344 184.354 83.563 184.354 84.9864C184.354 86.4099 184.64 87.7384 185.228 89.0037C185.815 90.269 186.625 91.3761 187.642 92.3093C188.674 93.2424 189.881 93.9858 191.278 94.5077C192.676 95.0454 194.137 95.2985 195.709 95.2985H206.969V95.3143Z" fill="#202020"/>
<path d="M254.131 54.3322V84.9837C254.131 87.3087 253.639 89.5071 252.67 91.579C251.702 93.6509 250.368 95.4698 248.668 97.0355C246.969 98.6013 244.984 99.835 242.697 100.721C240.41 101.606 237.996 102.049 235.439 102.049C232.883 102.049 230.453 101.606 228.182 100.721C225.895 99.835 223.894 98.6013 222.163 97.0355C220.432 95.4698 219.082 93.6509 218.113 91.579C217.145 89.5071 216.652 87.3087 216.652 84.9837C216.652 82.6113 217.145 80.3971 218.113 78.341C219.082 76.2849 220.432 74.4977 222.163 72.9477C223.894 71.3977 225.895 70.1957 228.182 69.31C230.469 68.4243 232.883 67.9815 235.439 67.9815H246.715V54.3164H254.131V54.3322ZM235.439 95.3116C236.996 95.3116 238.457 95.0427 239.823 94.5208C241.188 93.983 242.379 93.2555 243.412 92.3224C244.444 91.3892 245.254 90.2821 245.826 89.0168C246.413 87.7515 246.699 86.4072 246.699 84.9995V74.7507H235.424C233.867 74.7507 232.39 75.0196 230.993 75.5415C229.595 76.0793 228.388 76.8068 227.356 77.74C226.324 78.6731 225.514 79.7644 224.942 80.9981C224.355 82.2317 224.069 83.5603 224.069 84.9837C224.069 86.4072 224.355 87.7357 224.942 89.001C225.53 90.2663 226.34 91.3734 227.356 92.3065C228.388 93.2397 229.595 93.983 230.993 94.505C232.406 95.0427 233.883 95.3116 235.439 95.3116Z" fill="#202020"/>
<path d="M275.432 68C278.052 68 280.482 68.4428 282.737 69.3285C284.992 70.2142 286.961 71.4321 288.661 72.9662C290.36 74.5162 291.694 76.3034 292.663 78.3595C293.631 80.4156 294.124 82.6298 294.124 85.0023V102.084H275.416C272.859 102.084 270.429 101.641 268.158 100.755C265.872 99.8693 263.871 98.6357 262.14 97.0699C260.409 95.5041 259.059 93.6853 258.09 91.6134C257.121 89.5415 256.629 87.343 256.629 85.0181C256.629 82.6457 257.121 80.4314 258.09 78.3753C259.059 76.3192 260.409 74.532 262.14 72.982C263.871 71.4321 265.872 70.2301 268.158 69.3444C270.445 68.4428 272.875 68 275.432 68ZM286.707 95.3143V84.9864C286.707 83.563 286.421 82.2503 285.834 81.0008C285.246 79.7671 284.436 78.6758 283.42 77.7427C282.388 76.8095 281.197 76.0662 279.831 75.5443C278.465 75.0065 277.004 74.7534 275.448 74.7534C273.891 74.7534 272.415 75.0223 271.017 75.5443C269.619 76.082 268.413 76.8095 267.38 77.7427C266.348 78.6758 265.538 79.7671 264.966 81.0008C264.379 82.2344 264.093 83.563 264.093 84.9864C264.093 86.4099 264.379 87.7384 264.966 89.0037C265.554 90.269 266.364 91.3761 267.38 92.3093C268.413 93.2424 269.619 93.9858 271.017 94.5077C272.415 95.0454 273.876 95.2985 275.448 95.2985H286.707V95.3143Z" fill="#202020"/>
<path d="M330.025 68V74.7534H307.395C306.331 74.7534 305.442 75.0856 304.727 75.734C303.996 76.3983 303.647 77.2049 303.647 78.1697C303.647 79.1345 304.012 79.9569 304.727 80.637C305.442 81.3171 306.347 81.6651 307.395 81.6651H322.418C323.975 81.6651 325.436 81.9339 326.801 82.4559C328.167 82.9936 329.358 83.7053 330.391 84.6227C331.423 85.54 332.233 86.6155 332.804 87.8491C333.392 89.0828 333.678 90.4113 333.678 91.8348C333.678 93.2582 333.392 94.5868 332.804 95.8204C332.217 97.0541 331.407 98.1454 330.391 99.0785C329.358 100.012 328.167 100.755 326.801 101.277C325.436 101.815 323.975 102.068 322.418 102.068H299.883V95.3143H322.418C323.53 95.3143 324.451 94.9822 325.166 94.3337C325.88 93.6694 326.246 92.847 326.246 91.8348C326.246 90.87 325.88 90.0634 325.166 89.3991C324.435 88.7348 323.53 88.4185 322.418 88.4185H307.395C305.839 88.4185 304.378 88.1496 303.012 87.6277C301.646 87.09 300.471 86.3624 299.47 85.4293C298.47 84.4961 297.676 83.4048 297.088 82.1712C296.501 80.9375 296.215 79.609 296.215 78.1855C296.215 76.7621 296.501 75.4494 297.088 74.1999C297.676 72.9662 298.47 71.8907 299.47 70.9734C300.471 70.0561 301.646 69.3444 303.012 68.8066C304.378 68.2689 305.839 68.0158 307.395 68.0158H330.025V68Z" fill="#202020"/>
<path d="M336.047 85.1409C336.047 82.7685 336.539 80.5543 337.508 78.4982C338.477 76.4421 339.811 74.6549 341.51 73.1049C343.209 71.5549 345.194 70.3529 347.481 69.4672C349.768 68.5815 352.182 68.1387 354.739 68.1387C357.359 68.1387 359.789 68.5815 362.044 69.4672C364.299 70.3529 366.284 71.5708 368.015 73.1049C369.746 74.6549 371.096 76.4421 372.065 78.4982C373.034 80.5543 373.526 82.7685 373.526 85.1409C373.526 87.4659 373.034 89.6643 372.065 91.7362C371.096 93.8081 369.746 95.627 368.015 97.1928C366.284 98.7585 364.299 99.9922 362.044 100.878C359.789 101.764 357.359 102.206 354.739 102.206C352.182 102.206 349.752 101.764 347.481 100.878C345.194 99.9922 343.209 98.7585 341.51 97.1928C339.811 95.627 338.477 93.8081 337.508 91.7362C336.523 89.6801 336.047 87.4659 336.047 85.1409ZM343.384 85.1409C343.384 86.5644 343.67 87.8929 344.257 89.1582C344.845 90.4235 345.655 91.5306 346.671 92.4637C347.703 93.3969 348.91 94.1403 350.308 94.6622C351.705 95.1999 353.166 95.453 354.739 95.453C356.295 95.453 357.772 95.1841 359.169 94.6622C360.567 94.1244 361.774 93.3969 362.806 92.4637C363.838 91.5306 364.648 90.4235 365.22 89.1582C365.808 87.8929 366.094 86.5486 366.094 85.1409C366.094 83.7175 365.808 82.4048 365.22 81.1553C364.633 79.9216 363.823 78.8303 362.806 77.8972C361.774 76.964 360.567 76.2207 359.169 75.6987C357.772 75.161 356.295 74.9079 354.739 74.9079C353.182 74.9079 351.705 75.1768 350.308 75.6987C348.91 76.2365 347.703 76.964 346.671 77.8972C345.639 78.8303 344.829 79.9216 344.257 81.1553C343.686 82.4048 343.384 83.7333 343.384 85.1409Z" fill="#202020"/>
<path d="M390.473 61.8921C389.076 62.4298 387.869 63.1574 386.837 64.0905C385.805 65.0237 384.995 66.115 384.423 67.3486C383.835 68.5823 383.549 69.9108 383.549 71.3343V74.8296H398.573V81.5831H383.549V102.065H376.117V71.3343C376.117 68.9619 376.609 66.7476 377.578 64.6915C378.547 62.6354 379.897 60.8482 381.628 59.2983C383.359 57.7483 385.36 56.5463 387.647 55.6606C389.934 54.7749 392.347 54.332 394.904 54.332H398.573V61.0855H394.904C393.348 61.0855 391.871 61.3544 390.473 61.8921Z" fill="#202020"/>
<path d="M423.792 95.3114V102.065H420.123C417.566 102.065 415.136 101.622 412.865 100.736C410.579 99.8506 408.578 98.617 406.847 97.0512C405.116 95.4854 403.766 93.6665 402.797 91.5946C401.828 89.5227 401.336 87.3243 401.336 84.9993V54.332H408.768V74.8138H423.792V81.5673H408.768V84.9835C408.768 86.407 409.054 87.7355 409.642 89.0008C410.229 90.2661 411.039 91.3732 412.056 92.3063C413.088 93.2395 414.295 93.9828 415.692 94.5048C417.09 95.0425 418.551 95.2956 420.123 95.2956H423.792V95.3114Z" fill="#202020"/>
<path d="M12.1154 55.1037H19.373H62.7914H70.049H74.4797C71.7006 57.2705 70.2236 59.3424 70.049 61.3194L70.0013 80.7731L69.8901 80.6624L58.1542 93.0306C58.1542 92.6668 58.2018 92.2872 58.313 91.876V91.8286V67.6775H23.7561V74.162L64.9353 110.713C65.4276 110.934 65.9199 111.599 66.4281 112.69C66.9363 113.797 66.8251 115.126 66.0946 116.707C63.8395 121.547 60.5998 125.865 56.4073 129.676C52.2147 133.488 47.101 137.268 41.0822 141.001C34.301 136.794 28.6633 132.476 24.2008 128.063C19.7224 123.65 16.4985 118.589 14.5134 112.864L24.2802 102.647C24.2802 103.485 24.2325 104.133 24.1214 104.576C24.8201 110.08 26.5194 114.619 29.2032 118.241C31.903 121.847 35.8574 125.517 41.0822 129.265C47.0693 124.947 51.246 120.914 53.6122 117.166L13.9417 81.9119C12.7506 80.8839 12.163 79.413 12.163 77.515L12.1154 61.351C11.9089 59.374 10.4161 57.2863 7.62109 55.0879H12.1154V55.1037Z" fill="#49B973"/>
<path d="M51.7682 16.5828C58.6764 5.385 42.4303 -5.68624 32.3141 3.28146C19.9905 15.5863 42.2556 30.9121 51.7682 16.5828Z" fill="#49B973"/>
<path d="M72.0815 48.3872C85.4373 48.1026 85.5644 29.7085 71.8909 29.4871C64.5698 29.4871 59.5673 36.1773 62.1877 42.3613H51.881V27.1621C45.2745 30.8789 36.8417 30.8789 30.2353 27.1621V42.3613H19.9286C22.5648 36.1773 17.5464 29.5029 10.2253 29.4871C-3.49578 29.7085 -3.25757 48.1342 10.0348 48.3872C10.0665 48.3872 72.0338 48.3872 72.0815 48.3872Z" fill="#49B973"/>
</svg>
